# xmcd CD database file
#
# Track frame offsets:
#	150
#	18811
#	38589
#	59267
#	78751
#	95486
#	101687
#	108205
#	126771
#	146487
#	166465
#	186032
#
# Disc length: 2707 seconds
#
# Revision: 0
# Processed by: cddbd v1.5.1PL0 Copyright (c) Steve Scherf et al.
# Submitted via: CDex 1.60beta1
#
DISCID=8d0a910c
DTITLE=A BONE Featuring Cats and Dogs - A POPで逝こう
DYEAR=2005
DGENRE=Game
TTITLE0=MMC (MAKE ME CRAZY) FULL SIZE
TTITLE1=LINK ENERGY remixed by BLASTERHEAD FULL SIZE
TTITLE2=ゆけむりモード FULL SIZE
TTITLE3=LINK ENERGY A BONE ORIGINAL TRUE END VERSION FULL SIZE
TTITLE4=僕ハ考エルダカラ僕ハ存在スル FULL SIZE
TTITLE5=MMC (MAKE ME CRAZY) SHORT SIZE
TTITLE6=ゆけむりモード SHORT SIZE
TTITLE7=MMC (MAKE ME CRAZY) INST
TTITLE8=LINK ENERGY remixed by BLASTERHEAD INST
TTITLE9=ゆけむりモード INST
TTITLE10=LINK ENERGY A BONE ORIGINAL TRUE END VERSION INST
TTITLE11=僕ハ考エルダカラ僕ハ存在スル INST
EXTD=YEAR: 2005
EXTT0=
EXTT1=
EXTT2=
EXTT3=
EXTT4=
EXTT5=
EXTT6=
EXTT7=
EXTT8=
EXTT9=
EXTT10=
EXTT11=
PLAYORDER=
